<svg xmlns="http://www.w3.org/2000/svg" width="1600" height="900" viewBox="0 0 1600 900">
<rect width="100%" height="100%" fill="#FFFFFF"/>
<style>text{font-family:"Microsoft YaHei","Noto Sans CJK SC",Arial,sans-serif;fill:#1F2933}.mono{font-family:Consolas,monospace}</style>
<text x="800" y="62" text-anchor="middle" font-size="34" font-weight="700">不同编码的相对存储大小</text>
<text x="800" y="104" text-anchor="middle" font-size="20" fill="#5B6573">RAW = 100%，数值越低表示存储开销越小</text>
<line x1="160" y1="735.0" x2="1520" y2="735.0" stroke="#E5E7EB" stroke-width="1"/>
<text x="138" y="742.0" text-anchor="end" font-size="18">0%</text>
<line x1="160" y1="617.0" x2="1520" y2="617.0" stroke="#E5E7EB" stroke-width="1"/>
<text x="138" y="624.0" text-anchor="end" font-size="18">30%</text>
<line x1="160" y1="499.0" x2="1520" y2="499.0" stroke="#E5E7EB" stroke-width="1"/>
<text x="138" y="506.0" text-anchor="end" font-size="18">60%</text>
<line x1="160" y1="381.0" x2="1520" y2="381.0" stroke="#E5E7EB" stroke-width="1"/>
<text x="138" y="388.0" text-anchor="end" font-size="18">90%</text>
<line x1="160" y1="263.0" x2="1520" y2="263.0" stroke="#E5E7EB" stroke-width="1"/>
<text x="138" y="270.0" text-anchor="end" font-size="18">120%</text>
<line x1="160" y1="145.0" x2="1520" y2="145.0" stroke="#E5E7EB" stroke-width="1"/>
<text x="138" y="152.0" text-anchor="end" font-size="18">150%</text>
<line x1="160" y1="145" x2="160" y2="735" stroke="#4B5563" stroke-width="2"/>
<line x1="160" y1="735" x2="1520" y2="735" stroke="#4B5563" stroke-width="2"/>
<rect x="226.7" y="341.7" width="92" height="393.3" fill="#D9D9D9" stroke="#333333" stroke-width="1"/>
<text x="272.7" y="329.7" text-anchor="middle" font-size="18" font-weight="600">100.0%</text>
<rect x="340.7" y="723.5" width="92" height="11.5" fill="#777777" stroke="#333333" stroke-width="1"/>
<text x="386.7" y="711.5" text-anchor="middle" font-size="18" font-weight="600">2.9%</text>
<rect x="454.7" y="710.8" width="92" height="24.2" fill="#1F1F1F" stroke="#333333" stroke-width="1"/>
<text x="500.7" y="698.8" text-anchor="middle" font-size="18" font-weight="600">6.2%</text>
<text x="386.7" y="783" text-anchor="middle" font-size="23" font-weight="600">长游程</text>
<rect x="680.0" y="341.7" width="92" height="393.3" fill="#D9D9D9" stroke="#333333" stroke-width="1"/>
<text x="726.0" y="329.7" text-anchor="middle" font-size="18" font-weight="600">100.0%</text>
<rect x="794.0" y="391.0" width="92" height="344.0" fill="#777777" stroke="#333333" stroke-width="1"/>
<text x="840.0" y="379.0" text-anchor="middle" font-size="18" font-weight="600">87.5%</text>
<rect x="908.0" y="712.4" width="92" height="22.6" fill="#1F1F1F" stroke="#333333" stroke-width="1"/>
<text x="954.0" y="700.4" text-anchor="middle" font-size="18" font-weight="600">5.7%</text>
<text x="840.0" y="783" text-anchor="middle" font-size="23" font-weight="600">低基数</text>
<rect x="1133.3" y="341.7" width="92" height="393.3" fill="#D9D9D9" stroke="#333333" stroke-width="1"/>
<text x="1179.3" y="329.7" text-anchor="middle" font-size="18" font-weight="600">100.0%</text>
<rect x="1247.3" y="315.2" width="92" height="419.8" fill="#777777" stroke="#333333" stroke-width="1"/>
<text x="1293.3" y="303.2" text-anchor="middle" font-size="18" font-weight="600">106.7%</text>
<rect x="1361.3" y="330.1" width="92" height="404.9" fill="#1F1F1F" stroke="#333333" stroke-width="1"/>
<text x="1407.3" y="318.1" text-anchor="middle" font-size="18" font-weight="600">102.9%</text>
<text x="1293.3" y="783" text-anchor="middle" font-size="23" font-weight="600">高基数</text>
<rect x="470" y="810" width="34" height="24" fill="#D9D9D9" stroke="#333333"/>
<text x="518" y="830" font-size="19">RAW</text>
<rect x="720" y="810" width="34" height="24" fill="#777777" stroke="#333333"/>
<text x="768" y="830" font-size="19">RLE</text>
<rect x="970" y="810" width="34" height="24" fill="#1F1F1F" stroke="#333333"/>
<text x="1018" y="830" font-size="19">DICTIONARY</text>
<text x="42" y="440.0" text-anchor="middle" font-size="20" transform="rotate(-90 42 440.0)">相对存储大小</text>
</svg>