<svg xmlns="http://www.w3.org/2000/svg" width="1600" height="900" viewBox="0 0 1600 900">
<rect width="1600" height="900" fill="#FFFFFF"/>
<style>text{font-family:"Microsoft YaHei","Noto Sans CJK SC",Arial,sans-serif;fill:#1F2933}.small{font-size:16px}.label{font-size:19px}.title{font-size:34px;font-weight:700}.subtitle{font-size:19px;fill:#5B6573}</style>
<text x="800" y="58" text-anchor="middle" class="title">压缩态算子与完整解码对比</text>
<text x="800" y="96" text-anchor="middle" class="subtitle">RLE SUM 与 Dictionary GROUP BY 微基准；中位数与P95</text>
<line x1="150" y1="685" x2="1470" y2="685" stroke="#4B5563" stroke-width="2"/>
<line x1="150" y1="165" x2="150" y2="685" stroke="#4B5563" stroke-width="2"/>
<line x1="150" y1="685.0" x2="1470" y2="685.0" stroke="#E5E7EB"/>
<text x="130" y="691.0" text-anchor="end" font-size="16">0.0</text>
<line x1="150" y1="581.0" x2="1470" y2="581.0" stroke="#E5E7EB"/>
<text x="130" y="587.0" text-anchor="end" font-size="16">34.8</text>
<line x1="150" y1="477.0" x2="1470" y2="477.0" stroke="#E5E7EB"/>
<text x="130" y="483.0" text-anchor="end" font-size="16">69.5</text>
<line x1="150" y1="373.0" x2="1470" y2="373.0" stroke="#E5E7EB"/>
<text x="130" y="379.0" text-anchor="end" font-size="16">104.3</text>
<line x1="150" y1="269.0" x2="1470" y2="269.0" stroke="#E5E7EB"/>
<text x="130" y="275.0" text-anchor="end" font-size="16">139.0</text>
<line x1="150" y1="165.0" x2="1470" y2="165.0" stroke="#E5E7EB"/>
<text x="130" y="171.0" text-anchor="end" font-size="16">173.8</text>
<rect x="318.0" y="661.5" width="145" height="23.5" fill="#CFCFCF" stroke="#222"/>
<line x1="390.5" y1="661.5" x2="390.5" y2="655.4" stroke="#111" stroke-width="3"/>
<line x1="372.5" y1="655.4" x2="408.5" y2="655.4" stroke="#111" stroke-width="3"/>
<text x="390.5" y="649.5" text-anchor="middle" font-size="17" font-weight="600">7.84 ms</text>
<rect x="497.0" y="681.9" width="145" height="3.1" fill="#333333" stroke="#222"/>
<line x1="569.5" y1="681.9" x2="569.5" y2="680.6" stroke="#111" stroke-width="3"/>
<line x1="551.5" y1="680.6" x2="587.5" y2="680.6" stroke="#111" stroke-width="3"/>
<text x="569.5" y="669.9" text-anchor="middle" font-size="17" font-weight="600">1.03 ms</text>
<text x="480.0" y="730" text-anchor="middle" font-size="22" font-weight="700">RLE SUM</text>
<rect x="978.0" y="291.7" width="145" height="393.3" fill="#CFCFCF" stroke="#222"/>
<line x1="1050.5" y1="291.7" x2="1050.5" y2="244.3" stroke="#111" stroke-width="3"/>
<line x1="1032.5" y1="244.3" x2="1068.5" y2="244.3" stroke="#111" stroke-width="3"/>
<text x="1050.5" y="279.7" text-anchor="middle" font-size="17" font-weight="600">131.45 ms</text>
<rect x="1157.0" y="468.0" width="145" height="217.0" fill="#333333" stroke="#222"/>
<line x1="1229.5" y1="468.0" x2="1229.5" y2="451.2" stroke="#111" stroke-width="3"/>
<line x1="1211.5" y1="451.2" x2="1247.5" y2="451.2" stroke="#111" stroke-width="3"/>
<text x="1229.5" y="456.0" text-anchor="middle" font-size="17" font-weight="600">72.54 ms</text>
<text x="1140.0" y="730" text-anchor="middle" font-size="22" font-weight="700">Dictionary GROUP BY</text>
<rect x="550" y="770" width="34" height="24" fill="#CFCFCF" stroke="#222"/><text x="596" y="790" font-size="19">完整解码</text>
<rect x="815" y="770" width="34" height="24" fill="#333333" stroke="#222"/><text x="861" y="790" font-size="19">压缩态执行</text>
<text x="42" y="425" text-anchor="middle" font-size="19" transform="rotate(-90 42 425)">执行时间（ms）</text>
</svg>